<?xml version="1.0" encoding="UTF-8" standalone="no"?>
<!DOCTYPE svg PUBLIC "-//W3C//DTD SVG 1.1//EN"
 "http://www.w3.org/Graphics/SVG/1.1/DTD/svg11.dtd">
<!-- Generated by graphviz version 2.38.0 (20140413.2041)
 -->
<!-- Title: G Pages: 1 -->
<svg width="762pt" height="635pt"
 viewBox="0.00 0.00 762.09 635.00" xmlns="http://www.w3.org/2000/svg" xmlns:xlink="http://www.w3.org/1999/xlink">
<g id="graph0" class="graph" transform="scale(1 1) rotate(0) translate(4 631)">
<title>G</title>
<polygon fill="white" stroke="none" points="-4,4 -4,-631 758.088,-631 758.088,4 -4,4"/>
<g id="clust1" class="cluster"><title>cluster_Global</title>
<path fill="none" stroke="gray" d="M173.827,-8C173.827,-8 734.088,-8 734.088,-8 740.088,-8 746.088,-14 746.088,-20 746.088,-20 746.088,-607 746.088,-607 746.088,-613 740.088,-619 734.088,-619 734.088,-619 173.827,-619 173.827,-619 167.827,-619 161.827,-613 161.827,-607 161.827,-607 161.827,-20 161.827,-20 161.827,-14 167.827,-8 173.827,-8"/>
<text text-anchor="middle" x="453.958" y="-606.2" font-family="Times,serif" font-size="11.00" fill="gray">Global</text>
</g>
<!-- \\AccountController -->
<g id="node1" class="node"><title>\\AccountController</title>
<polygon fill="none" stroke="black" points="485.171,-592 356.734,-592 356.734,-556 485.171,-556 485.171,-592"/>
<text text-anchor="middle" x="420.952" y="-570.7" font-family="Courier,monospace" font-size="11.00">AccountController</text>
</g>
<!-- \\BaseController -->
<g id="node13" class="node"><title>\\BaseController</title>
<polygon fill="none" stroke="black" points="278.451,-322 169.619,-322 169.619,-286 278.451,-286 278.451,-322"/>
<text text-anchor="middle" x="224.035" y="-300.7" font-family="Courier,monospace" font-size="11.00">BaseController</text>
</g>
<!-- \\AccountController&#45;&gt;\\BaseController -->
<g id="edge1" class="edge"><title>\\AccountController&#45;&gt;\\BaseController</title>
<path fill="none" stroke="black" d="M362.717,-555.983C358.241,-553.364 354.006,-550.384 350.242,-547 283.191,-486.72 246.702,-382.076 232.342,-332.116"/>
<polygon fill="none" stroke="black" points="235.668,-331.014 229.611,-322.321 228.925,-332.894 235.668,-331.014"/>
</g>
<!-- \\Admin_AnalyticsResource -->
<g id="node2" class="node"><title>\\Admin_AnalyticsResource</title>
<polygon fill="none" stroke="black" points="734.7,-592 567.051,-592 567.051,-556 734.7,-556 734.7,-592"/>
<text text-anchor="middle" x="650.875" y="-570.7" font-family="Courier,monospace" font-size="11.00">Admin_AnalyticsResource</text>
</g>
<!-- \\BaseResource -->
<g id="node14" class="node"><title>\\BaseResource</title>
<polygon fill="none" stroke="black" points="468.666,-538 373.239,-538 373.239,-502 468.666,-502 468.666,-538"/>
<text text-anchor="middle" x="420.952" y="-516.7" font-family="Courier,monospace" font-size="11.00">BaseResource</text>
</g>
<!-- \\Admin_AnalyticsResource&#45;&gt;\\BaseResource -->
<g id="edge2" class="edge"><title>\\Admin_AnalyticsResource&#45;&gt;\\BaseResource</title>
<path fill="none" stroke="black" d="M573.664,-555.944C542.639,-548.593 507.407,-540.246 478.709,-533.447"/>
<polygon fill="none" stroke="black" points="479.385,-530.01 468.848,-531.111 477.772,-536.822 479.385,-530.01"/>
</g>
<!-- \\Admin_ArticlesResource -->
<g id="node3" class="node"><title>\\Admin_ArticlesResource</title>
<polygon fill="none" stroke="black" points="731.599,-538 570.152,-538 570.152,-502 731.599,-502 731.599,-538"/>
<text text-anchor="middle" x="650.875" y="-516.7" font-family="Courier,monospace" font-size="11.00">Admin_ArticlesResource</text>
</g>
<!-- \\Admin_ArticlesResource&#45;&gt;\\BaseResource -->
<g id="edge3" class="edge"><title>\\Admin_ArticlesResource&#45;&gt;\\BaseResource</title>
<path fill="none" stroke="black" d="M570.159,-520C540.108,-520 506.555,-520 478.984,-520"/>
<polygon fill="none" stroke="black" points="478.729,-516.5 468.729,-520 478.729,-523.5 478.729,-516.5"/>
</g>
<!-- \\Admin_CategoryResource -->
<g id="node4" class="node"><title>\\Admin_CategoryResource</title>
<polygon fill="none" stroke="black" points="731.599,-484 570.152,-484 570.152,-448 731.599,-448 731.599,-484"/>
<text text-anchor="middle" x="650.875" y="-462.7" font-family="Courier,monospace" font-size="11.00">Admin_CategoryResource</text>
</g>
<!-- \\Admin_CategoryResource&#45;&gt;\\BaseResource -->
<g id="edge4" class="edge"><title>\\Admin_CategoryResource&#45;&gt;\\BaseResource</title>
<path fill="none" stroke="black" d="M573.664,-484.056C542.639,-491.407 507.407,-499.754 478.709,-506.553"/>
<polygon fill="none" stroke="black" points="477.772,-503.178 468.848,-508.889 479.385,-509.99 477.772,-503.178"/>
</g>
<!-- \\Admin_ForumResource -->
<g id="node5" class="node"><title>\\Admin_ForumResource</title>
<polygon fill="none" stroke="black" points="721.797,-430 579.954,-430 579.954,-394 721.797,-394 721.797,-430"/>
<text text-anchor="middle" x="650.875" y="-408.7" font-family="Courier,monospace" font-size="11.00">Admin_ForumResource</text>
</g>
<!-- \\Admin_ForumResource&#45;&gt;\\BaseResource -->
<g id="edge5" class="edge"><title>\\Admin_ForumResource&#45;&gt;\\BaseResource</title>
<path fill="none" stroke="black" d="M583.975,-430.056C576.981,-432.731 570.084,-435.71 563.663,-439 528.064,-457.24 526.64,-473.595 491.663,-493 487.417,-495.355 482.924,-497.599 478.347,-499.713"/>
<polygon fill="none" stroke="black" points="476.635,-496.642 468.884,-503.864 479.447,-503.052 476.635,-496.642"/>
</g>
<!-- \\Admin_SupportResource -->
<g id="node6" class="node"><title>\\Admin_SupportResource</title>
<polygon fill="none" stroke="black" points="727.999,-376 573.752,-376 573.752,-340 727.999,-340 727.999,-376"/>
<text text-anchor="middle" x="650.875" y="-354.7" font-family="Courier,monospace" font-size="11.00">Admin_SupportResource</text>
</g>
<!-- \\Admin_SupportResource&#45;&gt;\\BaseResource -->
<g id="edge6" class="edge"><title>\\Admin_SupportResource&#45;&gt;\\BaseResource</title>
<path fill="none" stroke="black" d="M578.308,-376.046C573.133,-378.646 568.181,-381.614 563.663,-385 517.499,-419.597 536.659,-456.898 491.663,-493 487.424,-496.401 482.706,-499.412 477.78,-502.069"/>
<polygon fill="none" stroke="black" points="476.198,-498.947 468.747,-506.478 479.269,-505.237 476.198,-498.947"/>
</g>
<!-- \\Admin_UniversityResource -->
<g id="node7" class="node"><title>\\Admin_UniversityResource</title>
<polygon fill="none" stroke="black" points="738.302,-322 563.449,-322 563.449,-286 738.302,-286 738.302,-322"/>
<text text-anchor="middle" x="650.875" y="-300.7" font-family="Courier,monospace" font-size="11.00">Admin_UniversityResource</text>
</g>
<!-- \\Admin_UniversityResource&#45;&gt;\\BaseResource -->
<g id="edge7" class="edge"><title>\\Admin_UniversityResource&#45;&gt;\\BaseResource</title>
<path fill="none" stroke="black" d="M575.973,-322.169C571.566,-324.734 567.409,-327.66 563.663,-331 504.847,-383.428 548.716,-438.659 491.663,-493 487.61,-496.86 482.944,-500.186 477.987,-503.048"/>
<polygon fill="none" stroke="black" points="476.144,-500.059 468.82,-507.714 479.319,-506.297 476.144,-500.059"/>
</g>
<!-- \\Admin_UserResource -->
<g id="node8" class="node"><title>\\Admin_UserResource</title>
<polygon fill="none" stroke="black" points="718.195,-268 583.556,-268 583.556,-232 718.195,-232 718.195,-268"/>
<text text-anchor="middle" x="650.875" y="-246.7" font-family="Courier,monospace" font-size="11.00">Admin_UserResource</text>
</g>
<!-- \\Admin_UserResource&#45;&gt;\\BaseResource -->
<g id="edge8" class="edge"><title>\\Admin_UserResource&#45;&gt;\\BaseResource</title>
<path fill="none" stroke="black" d="M583.544,-263.431C576.225,-266.953 569.37,-271.396 563.663,-277 491.459,-347.898 561.487,-419.757 491.663,-493 487.589,-497.273 482.763,-500.879 477.579,-503.922"/>
<polygon fill="none" stroke="black" points="475.893,-500.853 468.589,-508.528 479.085,-507.083 475.893,-500.853"/>
</g>
<!-- \\AdminController -->
<g id="node9" class="node"><title>\\AdminController</title>
<polygon fill="none" stroke="black" points="478.469,-484 363.436,-484 363.436,-448 478.469,-448 478.469,-484"/>
<text text-anchor="middle" x="420.952" y="-462.7" font-family="Courier,monospace" font-size="11.00">AdminController</text>
</g>
<!-- \\AdminController&#45;&gt;\\BaseController -->
<g id="edge9" class="edge"><title>\\AdminController&#45;&gt;\\BaseController</title>
<path fill="none" stroke="black" d="M365.796,-447.894C360.362,-445.241 355.075,-442.28 350.242,-439 305.947,-408.938 266.023,-360.435 243.708,-330.483"/>
<polygon fill="none" stroke="black" points="246.363,-328.185 237.627,-322.191 240.718,-332.325 246.363,-328.185"/>
</g>
<!-- \\AndroidController -->
<g id="node10" class="node"><title>\\AndroidController</title>
<polygon fill="none" stroke="black" points="485.171,-430 356.734,-430 356.734,-394 485.171,-394 485.171,-430"/>
<text text-anchor="middle" x="420.952" y="-408.7" font-family="Courier,monospace" font-size="11.00">AndroidController</text>
</g>
<!-- \\AndroidController&#45;&gt;\\BaseController -->
<g id="edge10" class="edge"><title>\\AndroidController&#45;&gt;\\BaseController</title>
<path fill="none" stroke="black" d="M369.527,-393.891C362.947,-391.116 356.369,-388.127 350.242,-385 317.443,-368.262 282.441,-345.12 257.808,-327.857"/>
<polygon fill="none" stroke="black" points="259.734,-324.932 249.548,-322.016 255.692,-330.647 259.734,-324.932"/>
</g>
<!-- \\AppleController -->
<g id="node11" class="node"><title>\\AppleController</title>
<polygon fill="none" stroke="black" points="478.469,-376 363.436,-376 363.436,-340 478.469,-340 478.469,-376"/>
<text text-anchor="middle" x="420.952" y="-354.7" font-family="Courier,monospace" font-size="11.00">AppleController</text>
</g>
<!-- \\AppleController&#45;&gt;\\BaseController -->
<g id="edge11" class="edge"><title>\\AppleController&#45;&gt;\\BaseController</title>
<path fill="none" stroke="black" d="M363.312,-342.308C339.8,-335.795 312.419,-328.209 288.255,-321.515"/>
<polygon fill="none" stroke="black" points="289.04,-318.1 278.469,-318.803 287.172,-324.846 289.04,-318.1"/>
</g>
<!-- \\AuthorityController -->
<g id="node12" class="node"><title>\\AuthorityController</title>
<polygon fill="none" stroke="black" points="491.873,-322 350.031,-322 350.031,-286 491.873,-286 491.873,-322"/>
<text text-anchor="middle" x="420.952" y="-300.7" font-family="Courier,monospace" font-size="11.00">AuthorityController</text>
</g>
<!-- \\AuthorityController&#45;&gt;\\BaseController -->
<g id="edge12" class="edge"><title>\\AuthorityController&#45;&gt;\\BaseController</title>
<path fill="none" stroke="black" d="M350.133,-304C330.04,-304 308.239,-304 288.549,-304"/>
<polygon fill="none" stroke="black" points="288.466,-300.5 278.466,-304 288.466,-307.5 288.466,-300.5"/>
</g>
<!-- \\Controller -->
<g id="node20" class="node"><title>\\Controller</title>
<ellipse fill="none" stroke="black" cx="48.9136" cy="-304" rx="48.8273" ry="18"/>
<text text-anchor="middle" x="48.9136" y="-299.8" font-family="Times,serif" font-size="14.00" fill="gray">\Controller</text>
</g>
<!-- \\BaseController&#45;&gt;\\Controller -->
<g id="edge13" class="edge"><title>\\BaseController&#45;&gt;\\Controller</title>
<path fill="none" stroke="black" d="M169.68,-304C150.221,-304 128.124,-304 108.254,-304"/>
<polygon fill="none" stroke="black" points="108.093,-300.5 98.0925,-304 108.092,-307.5 108.093,-300.5"/>
</g>
<!-- \\BaseResource&#45;&gt;\\BaseController -->
<g id="edge14" class="edge"><title>\\BaseResource&#45;&gt;\\BaseController</title>
<path fill="none" stroke="black" d="M373.145,-506.495C365.02,-502.899 357.017,-498.452 350.242,-493 294.577,-448.205 254.899,-371.903 236.524,-331.302"/>
<polygon fill="none" stroke="black" points="239.666,-329.752 232.417,-322.025 233.265,-332.586 239.666,-329.752"/>
</g>
<!-- \\ForumController -->
<g id="node15" class="node"><title>\\ForumController</title>
<polygon fill="none" stroke="black" points="478.469,-268 363.436,-268 363.436,-232 478.469,-232 478.469,-268"/>
<text text-anchor="middle" x="420.952" y="-246.7" font-family="Courier,monospace" font-size="11.00">ForumController</text>
</g>
<!-- \\ForumController&#45;&gt;\\BaseController -->
<g id="edge15" class="edge"><title>\\ForumController&#45;&gt;\\BaseController</title>
<path fill="none" stroke="black" d="M363.312,-265.692C339.8,-272.205 312.419,-279.791 288.255,-286.485"/>
<polygon fill="none" stroke="black" points="287.172,-283.154 278.469,-289.197 289.04,-289.9 287.172,-283.154"/>
</g>
<!-- \\HomeController -->
<g id="node16" class="node"><title>\\HomeController</title>
<polygon fill="none" stroke="black" points="475.368,-214 366.537,-214 366.537,-178 475.368,-178 475.368,-214"/>
<text text-anchor="middle" x="420.952" y="-192.7" font-family="Courier,monospace" font-size="11.00">HomeController</text>
</g>
<!-- \\HomeController&#45;&gt;\\BaseController -->
<g id="edge16" class="edge"><title>\\HomeController&#45;&gt;\\BaseController</title>
<path fill="none" stroke="black" d="M369.527,-214.109C362.947,-216.884 356.369,-219.873 350.242,-223 317.443,-239.738 282.441,-262.88 257.808,-280.143"/>
<polygon fill="none" stroke="black" points="255.692,-277.353 249.548,-285.984 259.734,-283.068 255.692,-277.353"/>
</g>
<!-- \\MemberController -->
<g id="node17" class="node"><title>\\MemberController</title>
<polygon fill="none" stroke="black" points="481.57,-160 360.335,-160 360.335,-124 481.57,-124 481.57,-160"/>
<text text-anchor="middle" x="420.952" y="-138.7" font-family="Courier,monospace" font-size="11.00">MemberController</text>
</g>
<!-- \\MemberController&#45;&gt;\\BaseController -->
<g id="edge17" class="edge"><title>\\MemberController&#45;&gt;\\BaseController</title>
<path fill="none" stroke="black" d="M365.796,-160.106C360.362,-162.759 355.075,-165.72 350.242,-169 305.947,-199.062 266.023,-247.565 243.708,-277.517"/>
<polygon fill="none" stroke="black" points="240.718,-275.675 237.627,-285.809 246.363,-279.815 240.718,-275.675"/>
</g>
<!-- \\SupportController -->
<g id="node18" class="node"><title>\\SupportController</title>
<polygon fill="none" stroke="black" points="485.171,-106 356.734,-106 356.734,-70 485.171,-70 485.171,-106"/>
<text text-anchor="middle" x="420.952" y="-84.7" font-family="Courier,monospace" font-size="11.00">SupportController</text>
</g>
<!-- \\SupportController&#45;&gt;\\BaseController -->
<g id="edge18" class="edge"><title>\\SupportController&#45;&gt;\\BaseController</title>
<path fill="none" stroke="black" d="M363.806,-106.085C358.994,-108.704 354.388,-111.664 350.242,-115 294.577,-159.795 254.899,-236.097 236.524,-276.698"/>
<polygon fill="none" stroke="black" points="233.265,-275.414 232.417,-285.975 239.666,-278.248 233.265,-275.414"/>
</g>
<!-- \\WapController -->
<g id="node19" class="node"><title>\\WapController</title>
<polygon fill="none" stroke="black" points="471.767,-52 370.138,-52 370.138,-16 471.767,-16 471.767,-52"/>
<text text-anchor="middle" x="420.952" y="-30.7" font-family="Courier,monospace" font-size="11.00">WapController</text>
</g>
<!-- \\WapController&#45;&gt;\\BaseController -->
<g id="edge19" class="edge"><title>\\WapController&#45;&gt;\\BaseController</title>
<path fill="none" stroke="black" d="M370.119,-48.0905C362.939,-51.5449 356.033,-55.7938 350.242,-61 283.191,-121.28 246.702,-225.924 232.342,-275.884"/>
<polygon fill="none" stroke="black" points="228.925,-275.106 229.611,-285.679 235.668,-276.986 228.925,-275.106"/>
</g>
</g>
</svg>
